PathFileType	4	(X/Y/Z)	OpenSim_Sub01_CSStiffKnee_Gyro.trc
DataRate	CameraRate	NumFrames	NumMarkers	Units	OrigDataRate	OrigDataStartFrame	OrigNumFrames
100	100	20	8	m	100	673	5381
Frame#	Time	torso_imu_offset_imu	pelvis_imu_offset_imu	tibia_r_imu_offset_imu	femur_r_imu_offset_imu	tibia_l_imu_offset_imu	femur_l_imu_offset_imu	toes_r_imu_offset_imu	toes_l_imu_offset_imu
				X1	Y1	Z1	X2	Y2	Z2	X3	Y3	Z3	X4	Y4	Z4	X5	Y5	Z5	X6	Y6	Z6	X7	Y7	Z7	X8		Y8	Z8	

673	6.72000000	-0.46701882	-0.22263149	-0.22260743	0.06548707	0.13398686	0.11814073	-0.01895183	0.37200636	3.72940812	0.11233983	-0.40737560	1.12188957	0.08376364	-0.00679264	0.70567457	0.11883197	-0.39689480	0.67239643	0.29387867	3.60824161	1.16810819	-0.02323843	-0.03381224	0.18708578
674	6.73000000	-0.44716457	-0.18690760	-0.21337287	0.08788825	0.15294559	0.13026218	0.15482632	0.39654042	3.82225206	0.01779040	-0.46672209	1.03635148	0.05212922	-0.00353263	0.69509902	-0.03547302	-0.39906995	0.65933581	0.34302290	3.48703821	1.32215771	-0.02653310	-0.03480724	0.19364637
675	6.74000000	-0.43319999	-0.15620767	-0.20347408	0.10800125	0.17640079	0.14864008	0.44410015	0.43083046	3.92161061	-0.07837916	-0.50325286	0.93363169	0.04822365	-0.01403579	0.69496003	-0.14460198	-0.39556843	0.65099615	0.33495835	3.29306906	1.45173541	-0.02415479	-0.05155737	0.18920073
676	6.75000000	-0.42215978	-0.13244402	-0.19262512	0.12870872	0.19600390	0.16667956	0.80226723	0.47076317	4.01255692	-0.15745104	-0.50778570	0.82274408	0.06608349	-0.03238506	0.70649498	-0.20437070	-0.38626178	0.64995465	0.29748502	3.06706876	1.55460922	-0.01619015	-0.08459796	0.17702749
677	6.76000000	-0.40733461	-0.11489686	-0.17970515	0.15573642	0.19522634	0.17662582	1.16340032	0.50872287	4.06961214	-0.17868161	-0.46939202	0.71550005	0.08557382	-0.04386031	0.72413397	-0.22985171	-0.37180079	0.64815614	0.28648185	2.88577641	1.64998307	-0.00464312	-0.13149540	0.16585110
678	6.77000000	-0.38537958	-0.10159994	-0.16394246	0.19379317	0.16461767	0.17354309	1.46035009	0.54130939	4.07502751	-0.13298409	-0.38897297	0.62207052	0.09540260	-0.04095677	0.74329980	-0.23260926	-0.35430357	0.64108655	0.33364540	2.79622062	1.74603724	0.00790818	-0.18788970	0.16240619
679	6.78000000	-0.36056472	-0.08788173	-0.14536847	0.24523664	0.11075671	0.15881896	1.62379769	0.57462959	4.02860664	-0.08254182	-0.29387532	0.54888532	0.10441727	-0.03252291	0.76182660	-0.21582430	-0.33913966	0.63243949	0.41590518	2.77809961	1.82573695	0.01765989	-0.24520811	0.16883057
680	6.79000000	-0.33771154	-0.06933615	-0.12423132	0.31137725	0.04267157	0.13472203	1.59352728	0.61455949	3.93242383	-0.09040855	-0.21343233	0.50084684	0.12387215	-0.02871559	0.77845461	-0.18252836	-0.33198908	0.62639006	0.50334626	2.80079973	1.86847512	0.02137346	-0.29545072	0.18579202
681	6.80000000	-0.31669781	-0.04807623	-0.10189526	0.38599827	-0.02771424	0.10378331	1.40632922	0.65131240	3.78747736	-0.12906978	-0.16054381	0.47231401	0.16173705	-0.03035518	0.79791058	-0.14592036	-0.33719513	0.62061850	0.57189566	2.82130196	1.85198669	0.02335915	-0.34241566	0.20520388
682	6.81000000	-0.29448810	-0.03004658	-0.08037512	0.45845557	-0.08678671	0.06869015	1.15610481	0.66588595	3.59416544	-0.11777684	-0.13837775	0.45139609	0.22398709	-0.03275848	0.82842354	-0.12515021	-0.35828845	0.60899043	0.60094879	2.78932150	1.75311807	0.03235602	-0.39683450	0.21385631
683	6.82000000	-0.26871251	-0.01820163	-0.06003993	0.52084885	-0.12463820	0.03246266	0.91258253	0.64434306	3.36024114	-0.01668509	-0.14212666	0.41984247	0.30448029	-0.03209806	0.87202406	-0.12944155	-0.39368613	0.58891566	0.57459854	2.66565288	1.56769062	0.05195905	-0.46384638	0.20726138
684	6.83000000	-0.23857020	-0.00871339	-0.03756769	0.57152787	-0.13967975	-0.00114120	0.68990777	0.58431448	3.10988546	0.12124703	-0.14946836	0.34539229	0.37009580	-0.02661466	0.91681136	-0.14569816	-0.43041900	0.56582208	0.48731912	2.43602113	1.33388955	0.07415764	-0.53591225	0.20053990
685	6.84000000	-0.20367868	0.00290788	-0.00934133	0.60950709	-0.13266636	-0.02820604	0.49660145	0.48597835	2.86492206	0.23580456	-0.13826950	0.20054262	0.38881836	-0.01502208	0.95048806	-0.15700113	-0.45457787	0.54580783	0.33644337	2.09339214	1.09425250	0.09044262	-0.60469997	0.20913115
686	6.85000000	-0.16578306	0.01850965	0.02614696	0.63193331	-0.11693114	-0.04422242	0.36076061	0.35965224	2.59989119	0.32149126	-0.11281179	0.02648019	0.37773196	0.00197171	0.97612234	-0.13814490	-0.45845431	0.53069039	0.13431419	1.67065901	0.87707431	0.10336924	-0.67139900	0.22437134
687	6.86000000	-0.12788343	0.03837931	0.06915366	0.63487828	-0.11318537	-0.04435152	0.32180347	0.22164345	2.26156596	0.40496591	-0.09295967	-0.09523034	0.38278328	0.02248015	1.00581949	-0.05917717	-0.43803299	0.51976677	-0.09774519	1.22423563	0.70217709	0.12199012	-0.74280460	0.22344183
688	6.87000000	-0.09296133	0.06250729	0.11843876	0.62008680	-0.13328430	-0.02821956	0.37101937	0.09002798	1.82341055	0.48658112	-0.09861827	-0.11329913	0.42839690	0.04415137	1.04591929	0.07982718	-0.39677206	0.51334316	-0.31176697	0.80359906	0.57438747	0.14907921	-0.82335527	0.19703984
689	6.88000000	-0.06392072	0.09026643	0.16945937	0.60199270	-0.16911013	-0.00542493	0.39198275	-0.01334450	1.31924479	0.50706602	-0.14933412	-0.04515205	0.49014350	0.06362934	1.08963639	0.21165773	-0.35469840	0.51405015	-0.40059109	0.44207007	0.46531752	0.17321369	-0.91206933	0.16642825
690	6.89000000	-0.04326286	0.12089575	0.21752794	0.59549632	-0.21037673	0.01374154	0.27232025	-0.06947902	0.79043959	0.40665440	-0.25998805	0.08030172	0.53884165	0.07791769	1.12913180	0.26899191	-0.33188311	0.52419938	-0.26824194	0.15698257	0.34070397	0.18239647	-1.00692968	0.15493918
691	6.90000000	-0.02943997	0.15311523	0.26107737	0.60258914	-0.25231205	0.02577039	0.09195401	-0.09412273	0.27201238	0.20375157	-0.39779451	0.21158931	0.56449259	0.08913603	1.16402238	0.27712808	-0.32570948	0.53956300	-0.01689046	-0.17680399	0.15202456	0.17853276	-1.10280129	0.16457083
692	6.91000000	-0.01851642	0.18535158	0.30037532	0.61764576	-0.29334056	0.03117090	0.04365351	-0.12351099	-0.20492966	-0.03713097	-0.50192833	0.28404497	0.56844457	0.10241057	1.19832516	0.31580962	-0.32020830	0.55206190	0.13501519	-0.76771960	-0.15739118	0.17170183	-1.19274352	0.18473946
